<?xml version="1.0" standalone="no"?>
<!DOCTYPE svg PUBLIC "-//W3C//DTD SVG 20010904//EN"
 "http://www.w3.org/TR/2001/REC-SVG-20010904/DTD/svg10.dtd">
<svg version="1.0" xmlns="http://www.w3.org/2000/svg"
 width="300.000000pt" height="300.000000pt" viewBox="0 0 300.000000 300.000000"
 preserveAspectRatio="xMidYMid meet">
<metadata>
Created by potrace 1.11, written by Peter Selinger 2001-2013
</metadata>
<g transform="translate(0.000000,300.000000) scale(0.100000,-0.100000)"
fill="#000000" stroke="none">
<path d="M1425 2793 c-93 -10 -138 -31 -400 -183 -245 -143 -322 -187 -426
-247 -106 -61 -185 -130 -225 -199 -30 -50 -60 -128 -70 -176 -12 -59 -11
-908 1 -973 22 -118 92 -237 179 -304 41 -32 374 -230 586 -349 25 -14 83 -47
130 -74 117 -67 174 -83 295 -82 77 0 114 5 158 22 33 11 232 121 443 244 397
229 438 258 504 358 31 46 65 139 74 200 3 19 6 235 6 480 1 483 -1 504 -56
614 -45 89 -122 167 -220 223 -12 6 -172 98 -355 205 -186 107 -363 203 -400
215 -64 22 -161 33 -224 26z m370 -420 c82 -26 128 -66 262 -226 70 -84 135
-161 145 -172 9 -11 46 -55 82 -98 72 -85 96 -126 116 -199 24 -89 10 -150
-108 -468 -60 -162 -116 -309 -126 -327 -38 -75 -138 -150 -226 -171 -46 -11
-412 -77 -485 -87 -22 -4 -48 -9 -58 -11 -44 -13 -151 -12 -200 3 -99 28 -137
63 -345 310 -226 269 -247 298 -267 366 -31 106 -15 194 80 442 13 33 49 129
79 213 72 199 111 254 221 309 42 21 50 24 175 48 28 6 189 33 235 41 17 3 66
12 110 20 44 8 103 18 130 21 28 3 51 7 53 8 6 6 80 -7 127 -22z"/>
<path d="M1285 2021 c-50 -23 -68 -40 -135 -121 -30 -36 -57 -67 -60 -70 -28
-24 -131 -163 -144 -194 -26 -64 -20 -106 49 -295 77 -217 83 -230 136 -274
38 -33 77 -47 169 -63 19 -3 87 -14 150 -25 147 -26 168 -28 210 -16 66 18 93
44 290 280 72 86 100 150 93 211 -6 56 -128 393 -159 437 -38 56 -97 83 -224
103 -19 3 -87 15 -150 26 -141 24 -174 25 -225 1z"/>
</g>
</svg>
